<svg width="1680" height="640" viewBox="0 0 1680 640" fill="none" xmlns="http://www.w3.org/2000/svg">
<path d="M0 0V289.1C0.365479 289.511 0.734497 289.919 1.10364 290.326C1.94763 291.258 2.79187 292.191 3.59277 293.157C59.6569 360.589 122.112 421.227 193.996 471.808C246.597 508.812 302.77 538.873 364.7 557.3C438.072 579.129 511.812 581.787 585.492 559.542C666.715 534.995 734.381 489.273 790.188 425.68C824.04 387.129 851.889 344.353 877.197 299.941C892.867 272.446 908.305 244.813 923.743 217.178C941.079 186.148 958.416 155.116 976.085 124.275C1000.76 81.3713 1027.21 39.9463 1055.44 0H0Z" fill="url(#paint0_linear)"/>
<defs>
<linearGradient id="paint0_linear" x1="1476" y1="-270" x2="236.131" y2="683.817" gradientUnits="userSpaceOnUse">
<stop stop-color="#D1FEFB"/>
<stop offset="0.505208" stop-color="#86D4FB"/>
<stop offset="1" stop-color="#9397FB"/>
</linearGradient>
</defs>
</svg>
